<svg id="Available_on_the_App_Store__black__SVG" data-name="Available_on_the_App_Store_(black)_SVG" xmlns="http://www.w3.org/2000/svg" width="234.678" height="69.553" viewBox="0 0 234.678 69.553">
  <path id="Pfad_48" data-name="Pfad 48" d="M226.455,69.553H8.225A8.227,8.227,0,0,1,0,61.342V8.22A8.232,8.232,0,0,1,8.225,0H226.453a8.236,8.236,0,0,1,8.225,8.22V61.342a8.226,8.226,0,0,1-8.223,8.211Z" transform="translate(0 0)" fill="none"/>
  <path id="Pfad_49" data-name="Pfad 49" d="M232.465,60.684a6.661,6.661,0,0,1-6.669,6.662H7.567A6.67,6.67,0,0,1,.89,60.684V7.56A6.678,6.678,0,0,1,7.567.89H225.8a6.669,6.669,0,0,1,6.669,6.67l0,53.124Z" transform="translate(0.658 0.658)"/>
  <path id="Pfad_50" data-name="Pfad 50" d="M42.945,25.265a10.082,10.082,0,0,1,4.8-8.46,10.327,10.327,0,0,0-8.133-4.4c-3.421-.36-6.74,2.047-8.483,2.047-1.778,0-4.461-2.012-7.354-1.953a10.828,10.828,0,0,0-9.114,5.559c-3.941,6.823-1,16.85,2.774,22.366,1.889,2.7,4.1,5.717,6.985,5.611,2.826-.115,3.882-1.8,7.293-1.8,3.379,0,4.371,1.8,7.317,1.732,3.033-.047,4.943-2.713,6.766-5.439a22.3,22.3,0,0,0,3.094-6.3A9.754,9.754,0,0,1,42.945,25.265Z" transform="translate(9.457 9.146)" fill="#fff"/>
  <path id="Pfad_51" data-name="Pfad 51" d="M29.753,13.329a9.924,9.924,0,0,0,2.272-7.112A10.109,10.109,0,0,0,25.489,9.6a9.444,9.444,0,0,0-2.331,6.849A8.35,8.35,0,0,0,29.753,13.329Z" transform="translate(17.083 4.596)" fill="#fff"/>
  <g id="Gruppe_29" data-name="Gruppe 29" transform="translate(73.799 31.306)">
    <path id="Pfad_53" data-name="Pfad 53" d="M61.971,41.343h-3.95l-2.164-6.8H48.337l-2.061,6.8H42.43L49.883,18.2h4.6Zm-6.766-9.651-1.957-6.044q-.31-.926-1.167-4.36h-.07q-.344,1.477-1.1,4.36l-1.924,6.044Z" transform="translate(-42.43 -17.853)" fill="#fff"/>
    <path id="Pfad_54" data-name="Pfad 54" d="M71.493,30.194a9.451,9.451,0,0,1-2.313,6.729,6.783,6.783,0,0,1-5.145,2.2,5.15,5.15,0,0,1-4.766-2.367v8.757H55.561V27.54q0-2.674-.137-5.486h3.261l.207,2.645h.07a6.6,6.6,0,0,1,10.559-.656A9.229,9.229,0,0,1,71.493,30.194Zm-3.778.136a6.881,6.881,0,0,0-1.1-4.02,3.8,3.8,0,0,0-3.228-1.647,3.856,3.856,0,0,0-2.489.91,4.219,4.219,0,0,0-1.459,2.388,4.842,4.842,0,0,0-.172,1.129v2.785a4.465,4.465,0,0,0,1.117,3.075,3.707,3.707,0,0,0,2.9,1.254,3.8,3.8,0,0,0,3.261-1.614A7.1,7.1,0,0,0,67.716,30.33Z" transform="translate(-32.823 -15.255)" fill="#fff"/>
    <path id="Pfad_55" data-name="Pfad 55" d="M82.531,30.194a9.451,9.451,0,0,1-2.313,6.729,6.786,6.786,0,0,1-5.147,2.2,5.15,5.15,0,0,1-4.766-2.367v8.757H66.6V27.54q0-2.674-.137-5.486h3.261l.207,2.645H70a6.6,6.6,0,0,1,10.561-.656A9.239,9.239,0,0,1,82.531,30.194Zm-3.78.136a6.881,6.881,0,0,0-1.1-4.02,3.793,3.793,0,0,0-3.225-1.647,3.872,3.872,0,0,0-2.492.91,4.217,4.217,0,0,0-1.458,2.388A4.954,4.954,0,0,0,70.3,29.09v2.785a4.48,4.48,0,0,0,1.115,3.075,3.715,3.715,0,0,0,2.9,1.254,3.8,3.8,0,0,0,3.261-1.614A7.1,7.1,0,0,0,78.752,30.33Z" transform="translate(-24.664 -15.255)" fill="#fff"/>
    <path id="Pfad_56" data-name="Pfad 56" d="M94.142,35A6.183,6.183,0,0,1,92.085,39.8a9.12,9.12,0,0,1-6.305,2.026,11.005,11.005,0,0,1-5.994-1.442l.857-3.091A10.316,10.316,0,0,0,86,38.742a5.054,5.054,0,0,0,3.261-.944,3.085,3.085,0,0,0,1.171-2.522,3.232,3.232,0,0,0-.964-2.371,8.933,8.933,0,0,0-3.193-1.785q-6.079-2.267-6.081-6.63a5.854,5.854,0,0,1,2.146-4.67A8.487,8.487,0,0,1,88.025,18a11.232,11.232,0,0,1,5.254,1.1l-.931,3.023A9.187,9.187,0,0,0,87.9,21.057a4.523,4.523,0,0,0-3.068.962,2.753,2.753,0,0,0-.931,2.1,2.835,2.835,0,0,0,1.066,2.266,12.011,12.011,0,0,0,3.364,1.785,11.4,11.4,0,0,1,4.4,2.814A5.865,5.865,0,0,1,94.142,35Z" transform="translate(-14.812 -17.999)" fill="#fff"/>
    <path id="Pfad_57" data-name="Pfad 57" d="M99.428,26.46H95.34v8.1q0,3.092,2.164,3.089a6.514,6.514,0,0,0,1.647-.172l.1,2.816a8.4,8.4,0,0,1-2.884.41,4.444,4.444,0,0,1-3.435-1.341q-1.234-1.341-1.237-4.5V26.453H89.263V23.67H91.7V20.614l3.642-1.1V23.67h4.087v2.79Z" transform="translate(-7.806 -16.878)" fill="#fff"/>
    <path id="Pfad_58" data-name="Pfad 58" d="M112.638,30.26a9.156,9.156,0,0,1-2.2,6.319,7.837,7.837,0,0,1-6.112,2.541,7.47,7.47,0,0,1-5.856-2.435,8.878,8.878,0,0,1-2.181-6.147,9.082,9.082,0,0,1,2.249-6.352,7.8,7.8,0,0,1,6.063-2.473,7.627,7.627,0,0,1,5.9,2.439A8.762,8.762,0,0,1,112.638,30.26Zm-3.844.085a7.474,7.474,0,0,0-.993-3.938,3.671,3.671,0,0,0-3.333-1.988,3.724,3.724,0,0,0-3.4,1.988,7.6,7.6,0,0,0-.995,4.007,7.452,7.452,0,0,0,.995,3.94,3.8,3.8,0,0,0,6.7-.033A7.5,7.5,0,0,0,108.794,30.345Z" transform="translate(-2.611 -15.253)" fill="#fff"/>
    <path id="Pfad_59" data-name="Pfad 59" d="M116.419,25.316a6.453,6.453,0,0,0-1.169-.1,3.5,3.5,0,0,0-3.023,1.478,5.568,5.568,0,0,0-.925,3.3v8.757h-3.708V27.311q0-2.883-.108-5.254h3.23l.136,3.193h.1a5.725,5.725,0,0,1,1.854-2.645,4.484,4.484,0,0,1,2.68-.894,5.954,5.954,0,0,1,.927.068l0,3.538Z" transform="translate(5.667 -15.255)" fill="#fff"/>
    <path id="Pfad_60" data-name="Pfad 60" d="M128.462,29.621a8.7,8.7,0,0,1-.136,1.682H117.2a4.84,4.84,0,0,0,1.614,3.781,5.519,5.519,0,0,0,3.639,1.165,12.3,12.3,0,0,0,4.5-.788l.581,2.572a13.916,13.916,0,0,1-5.6,1.031,8.111,8.111,0,0,1-6.1-2.282,8.437,8.437,0,0,1-2.214-6.129,9.56,9.56,0,0,1,2.063-6.282,7.107,7.107,0,0,1,5.835-2.677,6.22,6.22,0,0,1,5.463,2.677A9.008,9.008,0,0,1,128.462,29.621Zm-3.536-.962a5.02,5.02,0,0,0-.72-2.851,3.238,3.238,0,0,0-2.953-1.548,3.516,3.516,0,0,0-2.952,1.511,5.539,5.539,0,0,0-1.1,2.884l7.723,0Z" transform="translate(10.208 -15.267)" fill="#fff"/>
  </g>
  <g id="Gruppe_30" data-name="Gruppe 30" transform="translate(75.18 11.398)">
    <path id="Pfad_61" data-name="Pfad 61" d="M52.83,18.269H50.887l-1.063-3.341h-3.7l-1.014,3.341H43.224L46.887,6.892h2.261ZM49.5,13.526l-.962-2.971c-.1-.3-.287-1.012-.574-2.143h-.035c-.118.489-.287,1.2-.541,2.143l-.944,2.971Z" transform="translate(-43.224 -6.302)" fill="#fff"/>
    <path id="Pfad_62" data-name="Pfad 62" d="M57.364,8.717l-3.106,8.2H52.486l-3.006-8.2h1.958l1.4,4.338c.237.725.438,1.418.59,2.075h.05c.136-.59.337-1.282.59-2.075l1.384-4.338h1.91Z" transform="translate(-38.599 -4.953)" fill="#fff"/>
    <path id="Pfad_63" data-name="Pfad 63" d="M59.982,16.991l-.136-.944H59.8a2.8,2.8,0,0,1-2.4,1.131,2.387,2.387,0,0,1-2.515-2.414c0-2.025,1.755-3.072,4.794-3.072V11.54c0-1.08-.574-1.621-1.7-1.621a3.83,3.83,0,0,0-2.143.609l-.37-1.2a5.251,5.251,0,0,1,2.819-.71c2.143,0,3.225,1.131,3.225,3.393v3.021a12.183,12.183,0,0,0,.118,1.958l-1.64,0Zm-.254-4.086c-2.026,0-3.039.49-3.039,1.654a1.162,1.162,0,0,0,1.249,1.282,1.744,1.744,0,0,0,1.79-1.67V12.906Z" transform="translate(-34.604 -5.025)" fill="#fff"/>
    <path id="Pfad_64" data-name="Pfad 64" d="M61.483,8.866a1.09,1.09,0,1,1,1.148-1.1A1.071,1.071,0,0,1,61.483,8.866Zm.946,9.554H60.606v-8.2h1.823Z" transform="translate(-30.523 -6.453)" fill="#fff"/>
    <path id="Pfad_65" data-name="Pfad 65" d="M65.253,18.519H63.43V6.553h1.823Z" transform="translate(-28.285 -6.553)" fill="#fff"/>
    <path id="Pfad_66" data-name="Pfad 66" d="M71.1,16.992l-.136-.944h-.05a2.8,2.8,0,0,1-2.4,1.131A2.387,2.387,0,0,1,66,14.764c0-2.025,1.755-3.072,4.794-3.072v-.151c0-1.08-.574-1.621-1.7-1.621a3.83,3.83,0,0,0-2.143.609l-.372-1.2a5.251,5.251,0,0,1,2.819-.71c2.143,0,3.225,1.131,3.225,3.393v3.021a12.64,12.64,0,0,0,.117,1.958Zm-.254-4.086c-2.026,0-3.039.49-3.039,1.654a1.162,1.162,0,0,0,1.249,1.282,1.744,1.744,0,0,0,1.79-1.67Z" transform="translate(-26.385 -5.026)" fill="#fff"/>
    <path id="Pfad_67" data-name="Pfad 67" d="M75.868,18.706a2.784,2.784,0,0,1-2.579-1.452h-.037l-.1,1.266H71.595c.05-.657.068-1.4.068-2.211V6.553h1.825v4.964h.035a2.814,2.814,0,0,1,2.616-1.367c1.976,0,3.36,1.689,3.36,4.152C79.5,16.848,77.961,18.706,75.868,18.706Zm-.37-7.124a2.1,2.1,0,0,0-2.009,2.178v1.435a2.009,2.009,0,0,0,1.978,2.059c1.365,0,2.178-1.113,2.178-2.886C77.643,12.714,76.8,11.581,75.5,11.581Z" transform="translate(-22.249 -6.553)" fill="#fff"/>
    <path id="Pfad_68" data-name="Pfad 68" d="M79.51,18.519H77.689V6.553H79.51Z" transform="translate(-17.744 -6.553)" fill="#fff"/>
    <path id="Pfad_69" data-name="Pfad 69" d="M87.514,13.336H82.042a2.354,2.354,0,0,0,2.583,2.43,6.153,6.153,0,0,0,2.211-.388l.284,1.266a6.838,6.838,0,0,1-2.75.506,3.808,3.808,0,0,1-4.086-4.134c0-2.515,1.555-4.406,3.88-4.406,2.092,0,3.411,1.553,3.411,3.9A3.432,3.432,0,0,1,87.514,13.336Zm-1.671-1.3c0-1.266-.642-2.16-1.807-2.16a2.165,2.165,0,0,0-1.993,2.16Z" transform="translate(-15.825 -5.032)" fill="#fff"/>
    <path id="Pfad_70" data-name="Pfad 70" d="M92.472,17.177a3.9,3.9,0,0,1-3.95-4.22A4,4,0,0,1,92.609,8.62a3.874,3.874,0,0,1,3.95,4.2A4.02,4.02,0,0,1,92.472,17.177Zm.07-7.225c-1.317,0-2.16,1.231-2.16,2.953,0,1.689.861,2.92,2.143,2.92s2.141-1.317,2.141-2.955C94.667,11.2,93.823,9.952,92.542,9.952Z" transform="translate(-9.735 -5.025)" fill="#fff"/>
    <path id="Pfad_71" data-name="Pfad 71" d="M101.833,16.992h-1.821v-4.71c0-1.451-.557-2.178-1.654-2.178a1.9,1.9,0,0,0-1.825,2.009v4.879H94.712V11.134c0-.725-.019-1.5-.068-2.346h1.6l.085,1.266h.05a2.943,2.943,0,0,1,2.6-1.435c1.72,0,2.851,1.317,2.851,3.459v4.914Z" transform="translate(-5.209 -5.026)" fill="#fff"/>
    <path id="Pfad_72" data-name="Pfad 72" d="M107.755,10.953H105.75v3.983q0,1.521,1.061,1.52a3.607,3.607,0,0,0,.811-.085l.05,1.384a4.062,4.062,0,0,1-1.416.2c-1.437,0-2.294-.793-2.294-2.87V10.953h-1.2V9.586h1.2v-1.5l1.788-.541V9.584h2.005Z" transform="translate(0.795 -5.822)" fill="#fff"/>
    <path id="Pfad_73" data-name="Pfad 73" d="M114.212,18.519h-1.825V13.844c0-1.468-.557-2.211-1.654-2.211a1.785,1.785,0,0,0-1.821,1.941v4.945h-1.825V6.553h1.825V11.48h.035a2.761,2.761,0,0,1,2.465-1.334c1.738,0,2.8,1.35,2.8,3.494Z" transform="translate(3.991 -6.553)" fill="#fff"/>
    <path id="Pfad_74" data-name="Pfad 74" d="M119.612,13.336h-5.47a2.352,2.352,0,0,0,2.581,2.43,6.146,6.146,0,0,0,2.211-.388l.285,1.266a6.847,6.847,0,0,1-2.752.506,3.808,3.808,0,0,1-4.086-4.134c0-2.515,1.555-4.406,3.88-4.406,2.092,0,3.411,1.553,3.411,3.9A3.525,3.525,0,0,1,119.612,13.336Zm-1.671-1.3c0-1.266-.64-2.16-1.805-2.16a2.162,2.162,0,0,0-1.993,2.16Z" transform="translate(7.905 -5.032)" fill="#fff"/>
  </g>
</svg>
