<svg id="Google_Play_Store_badge_EN" xmlns="http://www.w3.org/2000/svg" xmlns:xlink="http://www.w3.org/1999/xlink" width="206.37" height="60.896" viewBox="0 0 206.37 60.896">
  <defs>
    <linearGradient id="linear-gradient" x1="2.472" y1="1.035" x2="2.361" y2="1.005" gradientUnits="objectBoundingBox">
      <stop offset="0" stop-color="#00a0ff"/>
      <stop offset="0.007" stop-color="#00a1ff"/>
      <stop offset="0.26" stop-color="#00beff"/>
      <stop offset="0.512" stop-color="#00d2ff"/>
      <stop offset="0.76" stop-color="#00dfff"/>
      <stop offset="1" stop-color="#00e3ff"/>
    </linearGradient>
    <linearGradient id="linear-gradient-2" x1="1.95" y1="1.879" x2="1.69" y2="1.879" gradientUnits="objectBoundingBox">
      <stop offset="0" stop-color="#ffe000"/>
      <stop offset="0.409" stop-color="#ffbd00"/>
      <stop offset="0.775" stop-color="orange"/>
      <stop offset="1" stop-color="#ff9c00"/>
    </linearGradient>
    <linearGradient id="linear-gradient-3" x1="1.926" y1="0.946" x2="1.835" y2="0.793" gradientUnits="objectBoundingBox">
      <stop offset="0" stop-color="#ff3a44"/>
      <stop offset="1" stop-color="#c31162"/>
    </linearGradient>
    <linearGradient id="linear-gradient-4" x1="1.856" y1="2.093" x2="1.897" y2="2.025" gradientUnits="objectBoundingBox">
      <stop offset="0" stop-color="#32a071"/>
      <stop offset="0.068" stop-color="#2da771"/>
      <stop offset="0.476" stop-color="#15cf74"/>
      <stop offset="0.801" stop-color="#06e775"/>
      <stop offset="1" stop-color="#00f076"/>
    </linearGradient>
  </defs>
  <path id="Pfad_75" data-name="Pfad 75" d="M198.724,60.9H7.646A7.65,7.65,0,0,1,0,53.284V7.612A7.64,7.64,0,0,1,7.646,0H198.724a7.643,7.643,0,0,1,7.646,7.612V53.284A7.653,7.653,0,0,1,198.724,60.9Z" fill-rule="evenodd"/>
  <path id="Pfad_76" data-name="Pfad 76" d="M198.724,1.219a6.428,6.428,0,0,1,6.427,6.393V53.284a6.415,6.415,0,0,1-6.427,6.393H7.646a6.428,6.428,0,0,1-6.427-6.393V7.612A6.416,6.416,0,0,1,7.646,1.219Zm0-1.219H7.646A7.65,7.65,0,0,0,0,7.612V53.284A7.64,7.64,0,0,0,7.646,60.9H198.724a7.643,7.643,0,0,0,7.646-7.612V7.612A7.653,7.653,0,0,0,198.724,0Z" fill="none" fill-rule="evenodd"/>
  <path id="Pfad_77" data-name="Pfad 77" d="M1700.211,281.144a4.633,4.633,0,0,1-3.458-1.431,4.875,4.875,0,0,1-1.4-3.493,4.766,4.766,0,0,1,1.4-3.489,4.619,4.619,0,0,1,3.455-1.431,4.68,4.68,0,0,1,3.458,1.431,5.055,5.055,0,0,1,0,6.978A4.594,4.594,0,0,1,1700.211,281.144Zm-41.006,0a4.805,4.805,0,0,1-3.474-1.412,4.92,4.92,0,0,1,3.474-8.428,4.839,4.839,0,0,1,1.94.4,3.922,3.922,0,0,1,1.477,1.055l.091.11-1.029,1.01-.106-.125a2.924,2.924,0,0,0-2.388-1.029,3.3,3.3,0,0,0-2.381.972,3.69,3.69,0,0,0,0,5.057,3.48,3.48,0,0,0,4.825,0,2.628,2.628,0,0,0,.7-1.583h-3.3v-1.42h4.715l.019.129a5.206,5.206,0,0,1,.068.714,4.274,4.274,0,0,1-1.177,3.151A4.593,4.593,0,0,1,1659.205,281.144Zm54.521-.2h-1.454l-4.453-7.126.038,1.283v5.839H1706.4V271.5h1.659l.046.072,4.188,6.712-.038-1.279v-5.5h1.469Zm-24.442,0h-1.473v-8.018h-2.555V271.5h6.579v1.42h-2.555v8.018Zm-5.228,0h-1.469V271.5h1.469Zm-8.258,0h-1.469v-8.018h-2.555V271.5h6.579v1.42H1675.8Zm-4.954-.015h-5.634V271.5h5.634v1.42h-4.161v2.589h3.755v1.4h-3.755v2.589h4.161Zm26.986-2.191a3.251,3.251,0,0,0,2.38.987,3.169,3.169,0,0,0,2.38-.987,3.741,3.741,0,0,0,0-5.027,3.257,3.257,0,0,0-2.38-.987,3.154,3.154,0,0,0-2.377.987,3.746,3.746,0,0,0-.008,5.027Z" transform="translate(-1591.495 -261)" fill="#fff"/>
  <path id="Pfad_78" data-name="Pfad 78" d="M1687.907,690.191a6.477,6.477,0,1,0,6.5,6.477A6.375,6.375,0,0,0,1687.907,690.191Zm0,10.387a3.936,3.936,0,1,1,3.652-3.926A3.748,3.748,0,0,1,1687.907,700.578Zm-14.172-10.387a6.477,6.477,0,1,0,6.5,6.477A6.375,6.375,0,0,0,1673.735,690.191Zm0,10.387a3.936,3.936,0,1,1,3.652-3.926A3.748,3.748,0,0,1,1673.735,700.578Zm-16.864-8.409v2.741h6.58a5.778,5.778,0,0,1-1.488,3.451,6.713,6.713,0,0,1-5.076,2.012,7.309,7.309,0,0,1,0-14.617,7.024,7.024,0,0,1,4.954,1.963l1.944-1.944A9.559,9.559,0,0,0,1656.9,683a10.05,10.05,0,1,0,0,20.1,9.2,9.2,0,0,0,7.02-2.825,9.1,9.1,0,0,0,2.384-6.427,8.482,8.482,0,0,0-.152-1.708h-9.286S1656.871,692.168,1656.871,692.168Zm68.979,2.134a6.019,6.019,0,0,0-5.547-4.127,6.153,6.153,0,0,0-6.105,6.477,6.331,6.331,0,0,0,6.428,6.477,6.428,6.428,0,0,0,5.395-2.874l-2.2-1.473a3.684,3.684,0,0,1-3.181,1.792,3.308,3.308,0,0,1-3.147-1.963l8.66-3.588S1725.849,694.3,1725.849,694.3Zm-8.831,2.164a3.555,3.555,0,0,1,3.383-3.774,2.5,2.5,0,0,1,2.4,1.37Zm-7.035,6.276h2.844V683.714h-2.844Zm-4.67-11.112h-.1a4.485,4.485,0,0,0-3.417-1.454,6.477,6.477,0,0,0,0,12.942,4.473,4.473,0,0,0,3.417-1.473h.1v.93c0,2.472-1.321,3.8-3.451,3.8a3.591,3.591,0,0,1-3.265-2.3l-2.472,1.033a6.182,6.182,0,0,0,5.733,3.823c3.333,0,6.158-1.963,6.158-6.75V690.563h-2.688v1.067Zm-3.265,8.948a3.938,3.938,0,0,1,0-7.847,3.641,3.641,0,0,1,3.451,3.941A3.6,3.6,0,0,1,1702.049,700.578Zm37.115-16.864h-6.8v19.028h2.844v-7.206h3.96a5.92,5.92,0,1,0,0-11.822Zm.084,9.165H1735.2v-6.53h4.043a3.266,3.266,0,1,1,0,6.53Zm17.559-2.722a5.355,5.355,0,0,0-5.076,2.908l2.521,1.048a2.7,2.7,0,0,1,2.589-1.4,2.746,2.746,0,0,1,3,2.453v.2a6.37,6.37,0,0,0-2.961-.729c-2.722,0-5.482,1.488-5.482,4.279,0,2.555,2.232,4.2,4.719,4.2a4,4,0,0,0,3.618-1.86h.1v1.473h2.741V695.43C1762.573,692.036,1760.052,690.156,1756.806,690.156Zm-.357,10.421c-.93,0-2.232-.456-2.232-1.625,0-1.473,1.625-2.031,3.011-2.031a4.935,4.935,0,0,1,2.589.642A3.423,3.423,0,0,1,1756.449,700.578Zm16.124-10.015-3.265,8.254h-.1l-3.383-8.254h-3.06l5.076,11.537-2.893,6.412h2.961l7.809-17.95Zm-25.6,12.179h2.843V683.714h-2.843Z" transform="translate(-1584.183 -657.07)" fill="#fff" fill-rule="evenodd"/>
  <path id="Pfad_79" data-name="Pfad 79" d="M400.795,299.5a3.084,3.084,0,0,0-.695,2.149v33.664a2.936,2.936,0,0,0,.71,2.13l.118.1,18.861-18.861v-.421L400.912,299.4Z" transform="translate(-384.91 -288.033)" fill-rule="evenodd" fill="url(#linear-gradient)"/>
  <path id="Pfad_80" data-name="Pfad 80" d="M924.591,643.522l-6.291-6.291v-.44l6.291-6.291.137.083,7.441,4.229c2.13,1.2,2.13,3.181,0,4.4l-7.441,4.229Z" transform="translate(-883.437 -606.563)" fill-rule="evenodd" fill="url(#linear-gradient-2)"/>
  <path id="Pfad_81" data-name="Pfad 81" d="M443.806,808.427,437.379,802,418.4,820.979c.695.744,1.86.828,3.163.1l22.244-12.654" transform="translate(-402.515 -771.552)" fill-rule="evenodd" fill="url(#linear-gradient-3)"/>
  <path id="Pfad_82" data-name="Pfad 82" d="M443.806,299.625,421.563,286.99c-1.3-.744-2.472-.642-3.163.1l18.979,18.96Z" transform="translate(-402.515 -275.604)" fill-rule="evenodd" fill="url(#linear-gradient-4)"/>
  <path id="Pfad_83" data-name="Pfad 83" d="M444.054,967.7l-22.092,12.551a2.507,2.507,0,0,1-3.045.015l-.118.118.118.1a2.513,2.513,0,0,0,3.045-.015l22.244-12.635Z" transform="translate(-402.9 -930.961)" fill-rule="evenodd" opacity="0.2"/>
  <path id="Pfad_84" data-name="Pfad 84" d="M1091.1,803.978l-7.6,4.313.137.137,7.441-4.229a2.666,2.666,0,0,0,1.591-2.2A2.74,2.74,0,0,1,1091.1,803.978Z" transform="translate(-1042.365 -771.552)" fill-rule="evenodd" opacity="0.12"/>
  <path id="Pfad_85" data-name="Pfad 85" d="M403.957,287.042l29.685,16.864a2.8,2.8,0,0,1,1.591,1.978,2.666,2.666,0,0,0-1.591-2.2l-29.685-16.864c-2.13-1.219-3.857-.2-3.857,2.232v.22C400.1,286.837,401.827,285.839,403.957,287.042Z" transform="translate(-384.91 -275.436)" fill="#fff" fill-rule="evenodd" opacity="0.25"/>
</svg>
